<?xml version="1.0" encoding="utf-8" standalone="no"?>
<!DOCTYPE svg PUBLIC "-//W3C//DTD SVG 1.1//EN"
  "http://www.w3.org/Graphics/SVG/1.1/DTD/svg11.dtd">
<svg xmlns:xlink="http://www.w3.org/1999/xlink" width="737.28pt" height="737.28pt" viewBox="0 0 737.28 737.28" xmlns="http://www.w3.org/2000/svg" version="1.1">
 <metadata>
  <rdf:RDF xmlns:dc="http://purl.org/dc/elements/1.1/" xmlns:cc="http://creativecommons.org/ns#" xmlns:rdf="http://www.w3.org/1999/02/22-rdf-syntax-ns#">
   <cc:Work>
    <dc:type rdf:resource="http://purl.org/dc/dcmitype/StillImage"/>
    <dc:date>2024-06-04T17:22:53.254000</dc:date>
    <dc:format>image/svg+xml</dc:format>
    <dc:creator>
     <cc:Agent>
      <dc:title>Matplotlib v3.9.0, https://matplotlib.org/</dc:title>
     </cc:Agent>
    </dc:creator>
   </cc:Work>
  </rdf:RDF>
 </metadata>
 <defs>
  <style type="text/css">*{stroke-linejoin: round; stroke-linecap: butt}</style>
 </defs>
 <g id="figure_1">
  <g id="patch_1">
   <path d="M 0 737.28 
L 737.28 737.28 
L 737.28 0 
L 0 0 
z
" style="fill: #ffffff"/>
  </g>
  <g id="axes_1">
   <g id="patch_2">
    <path d="M 57.412267 330.274133 
L 718.848 330.274133 
L 718.848 45.8752 
L 57.412267 45.8752 
z
" style="fill: #ffffff"/>
   </g>
   <g id="matplotlib.axis_1">
    <g id="xtick_1">
     <g id="line2d_1">
      <defs>
       <path id="m52d15b1365" d="M 0 0 
L 0 3.5 
" style="stroke: #000000; stroke-width: 0.8"/>
      </defs>
      <g>
       <use xlink:href="#m52d15b1365" x="126.65534" y="330.274133" style="stroke: #000000; stroke-width: 0.8"/>
      </g>
     </g>
     <g id="text_1">
      <!-- 0.1 -->
      <g transform="translate(118.703778 344.872571) scale(0.1 -0.1)">
       <defs>
        <path id="DejaVuSans-30" d="M 2034 4250 
Q 1547 4250 1301 3770 
Q 1056 3291 1056 2328 
Q 1056 1369 1301 889 
Q 1547 409 2034 409 
Q 2525 409 2770 889 
Q 3016 1369 3016 2328 
Q 3016 3291 2770 3770 
Q 2525 4250 2034 4250 
z
M 2034 4750 
Q 2819 4750 3233 4129 
Q 3647 3509 3647 2328 
Q 3647 1150 3233 529 
Q 2819 -91 2034 -91 
Q 1250 -91 836 529 
Q 422 1150 422 2328 
Q 422 3509 836 4129 
Q 1250 4750 2034 4750 
z
" transform="scale(0.015625)"/>
        <path id="DejaVuSans-2e" d="M 684 794 
L 1344 794 
L 1344 0 
L 684 0 
L 684 794 
z
" transform="scale(0.015625)"/>
        <path id="DejaVuSans-31" d="M 794 531 
L 1825 531 
L 1825 4091 
L 703 3866 
L 703 4441 
L 1819 4666 
L 2450 4666 
L 2450 531 
L 3481 531 
L 3481 0 
L 794 0 
L 794 531 
z
" transform="scale(0.015625)"/>
       </defs>
       <use xlink:href="#DejaVuSans-30"/>
       <use xlink:href="#DejaVuSans-2e" x="63.623047"/>
       <use xlink:href="#DejaVuSans-31" x="95.410156"/>
      </g>
     </g>
    </g>
    <g id="xtick_2">
     <g id="line2d_2">
      <g>
       <use xlink:href="#m52d15b1365" x="201.594803" y="330.274133" style="stroke: #000000; stroke-width: 0.8"/>
      </g>
     </g>
     <g id="text_2">
      <!-- 0.2 -->
      <g transform="translate(193.64324 344.872571) scale(0.1 -0.1)">
       <defs>
        <path id="DejaVuSans-32" d="M 1228 531 
L 3431 531 
L 3431 0 
L 469 0 
L 469 531 
Q 828 903 1448 1529 
Q 2069 2156 2228 2338 
Q 2531 2678 2651 2914 
Q 2772 3150 2772 3378 
Q 2772 3750 2511 3984 
Q 2250 4219 1831 4219 
Q 1534 4219 1204 4116 
Q 875 4013 500 3803 
L 500 4441 
Q 881 4594 1212 4672 
Q 1544 4750 1819 4750 
Q 2544 4750 2975 4387 
Q 3406 4025 3406 3419 
Q 3406 3131 3298 2873 
Q 3191 2616 2906 2266 
Q 2828 2175 2409 1742 
Q 1991 1309 1228 531 
z
" transform="scale(0.015625)"/>
       </defs>
       <use xlink:href="#DejaVuSans-30"/>
       <use xlink:href="#DejaVuSans-2e" x="63.623047"/>
       <use xlink:href="#DejaVuSans-32" x="95.410156"/>
      </g>
     </g>
    </g>
    <g id="xtick_3">
     <g id="line2d_3">
      <g>
       <use xlink:href="#m52d15b1365" x="276.534265" y="330.274133" style="stroke: #000000; stroke-width: 0.8"/>
      </g>
     </g>
     <g id="text_3">
      <!-- 0.3 -->
      <g transform="translate(268.582702 344.872571) scale(0.1 -0.1)">
       <defs>
        <path id="DejaVuSans-33" d="M 2597 2516 
Q 3050 2419 3304 2112 
Q 3559 1806 3559 1356 
Q 3559 666 3084 287 
Q 2609 -91 1734 -91 
Q 1441 -91 1130 -33 
Q 819 25 488 141 
L 488 750 
Q 750 597 1062 519 
Q 1375 441 1716 441 
Q 2309 441 2620 675 
Q 2931 909 2931 1356 
Q 2931 1769 2642 2001 
Q 2353 2234 1838 2234 
L 1294 2234 
L 1294 2753 
L 1863 2753 
Q 2328 2753 2575 2939 
Q 2822 3125 2822 3475 
Q 2822 3834 2567 4026 
Q 2313 4219 1838 4219 
Q 1578 4219 1281 4162 
Q 984 4106 628 3988 
L 628 4550 
Q 988 4650 1302 4700 
Q 1616 4750 1894 4750 
Q 2613 4750 3031 4423 
Q 3450 4097 3450 3541 
Q 3450 3153 3228 2886 
Q 3006 2619 2597 2516 
z
" transform="scale(0.015625)"/>
       </defs>
       <use xlink:href="#DejaVuSans-30"/>
       <use xlink:href="#DejaVuSans-2e" x="63.623047"/>
       <use xlink:href="#DejaVuSans-33" x="95.410156"/>
      </g>
     </g>
    </g>
    <g id="xtick_4">
     <g id="line2d_4">
      <g>
       <use xlink:href="#m52d15b1365" x="351.473727" y="330.274133" style="stroke: #000000; stroke-width: 0.8"/>
      </g>
     </g>
     <g id="text_4">
      <!-- 0.4 -->
      <g transform="translate(343.522165 344.872571) scale(0.1 -0.1)">
       <defs>
        <path id="DejaVuSans-34" d="M 2419 4116 
L 825 1625 
L 2419 1625 
L 2419 4116 
z
M 2253 4666 
L 3047 4666 
L 3047 1625 
L 3713 1625 
L 3713 1100 
L 3047 1100 
L 3047 0 
L 2419 0 
L 2419 1100 
L 313 1100 
L 313 1709 
L 2253 4666 
z
" transform="scale(0.015625)"/>
       </defs>
       <use xlink:href="#DejaVuSans-30"/>
       <use xlink:href="#DejaVuSans-2e" x="63.623047"/>
       <use xlink:href="#DejaVuSans-34" x="95.410156"/>
      </g>
     </g>
    </g>
    <g id="xtick_5">
     <g id="line2d_5">
      <g>
       <use xlink:href="#m52d15b1365" x="426.413189" y="330.274133" style="stroke: #000000; stroke-width: 0.8"/>
      </g>
     </g>
     <g id="text_5">
      <!-- 0.5 -->
      <g transform="translate(418.461627 344.872571) scale(0.1 -0.1)">
       <defs>
        <path id="DejaVuSans-35" d="M 691 4666 
L 3169 4666 
L 3169 4134 
L 1269 4134 
L 1269 2991 
Q 1406 3038 1543 3061 
Q 1681 3084 1819 3084 
Q 2600 3084 3056 2656 
Q 3513 2228 3513 1497 
Q 3513 744 3044 326 
Q 2575 -91 1722 -91 
Q 1428 -91 1123 -41 
Q 819 9 494 109 
L 494 744 
Q 775 591 1075 516 
Q 1375 441 1709 441 
Q 2250 441 2565 725 
Q 2881 1009 2881 1497 
Q 2881 1984 2565 2268 
Q 2250 2553 1709 2553 
Q 1456 2553 1204 2497 
Q 953 2441 691 2322 
L 691 4666 
z
" transform="scale(0.015625)"/>
       </defs>
       <use xlink:href="#DejaVuSans-30"/>
       <use xlink:href="#DejaVuSans-2e" x="63.623047"/>
       <use xlink:href="#DejaVuSans-35" x="95.410156"/>
      </g>
     </g>
    </g>
    <g id="xtick_6">
     <g id="line2d_6">
      <g>
       <use xlink:href="#m52d15b1365" x="501.352652" y="330.274133" style="stroke: #000000; stroke-width: 0.8"/>
      </g>
     </g>
     <g id="text_6">
      <!-- 0.6 -->
      <g transform="translate(493.401089 344.872571) scale(0.1 -0.1)">
       <defs>
        <path id="DejaVuSans-36" d="M 2113 2584 
Q 1688 2584 1439 2293 
Q 1191 2003 1191 1497 
Q 1191 994 1439 701 
Q 1688 409 2113 409 
Q 2538 409 2786 701 
Q 3034 994 3034 1497 
Q 3034 2003 2786 2293 
Q 2538 2584 2113 2584 
z
M 3366 4563 
L 3366 3988 
Q 3128 4100 2886 4159 
Q 2644 4219 2406 4219 
Q 1781 4219 1451 3797 
Q 1122 3375 1075 2522 
Q 1259 2794 1537 2939 
Q 1816 3084 2150 3084 
Q 2853 3084 3261 2657 
Q 3669 2231 3669 1497 
Q 3669 778 3244 343 
Q 2819 -91 2113 -91 
Q 1303 -91 875 529 
Q 447 1150 447 2328 
Q 447 3434 972 4092 
Q 1497 4750 2381 4750 
Q 2619 4750 2861 4703 
Q 3103 4656 3366 4563 
z
" transform="scale(0.015625)"/>
       </defs>
       <use xlink:href="#DejaVuSans-30"/>
       <use xlink:href="#DejaVuSans-2e" x="63.623047"/>
       <use xlink:href="#DejaVuSans-36" x="95.410156"/>
      </g>
     </g>
    </g>
    <g id="xtick_7">
     <g id="line2d_7">
      <g>
       <use xlink:href="#m52d15b1365" x="576.292114" y="330.274133" style="stroke: #000000; stroke-width: 0.8"/>
      </g>
     </g>
     <g id="text_7">
      <!-- 0.7 -->
      <g transform="translate(568.340551 344.872571) scale(0.1 -0.1)">
       <defs>
        <path id="DejaVuSans-37" d="M 525 4666 
L 3525 4666 
L 3525 4397 
L 1831 0 
L 1172 0 
L 2766 4134 
L 525 4134 
L 525 4666 
z
" transform="scale(0.015625)"/>
       </defs>
       <use xlink:href="#DejaVuSans-30"/>
       <use xlink:href="#DejaVuSans-2e" x="63.623047"/>
       <use xlink:href="#DejaVuSans-37" x="95.410156"/>
      </g>
     </g>
    </g>
    <g id="xtick_8">
     <g id="line2d_8">
      <g>
       <use xlink:href="#m52d15b1365" x="651.231576" y="330.274133" style="stroke: #000000; stroke-width: 0.8"/>
      </g>
     </g>
     <g id="text_8">
      <!-- 0.8 -->
      <g transform="translate(643.280014 344.872571) scale(0.1 -0.1)">
       <defs>
        <path id="DejaVuSans-38" d="M 2034 2216 
Q 1584 2216 1326 1975 
Q 1069 1734 1069 1313 
Q 1069 891 1326 650 
Q 1584 409 2034 409 
Q 2484 409 2743 651 
Q 3003 894 3003 1313 
Q 3003 1734 2745 1975 
Q 2488 2216 2034 2216 
z
M 1403 2484 
Q 997 2584 770 2862 
Q 544 3141 544 3541 
Q 544 4100 942 4425 
Q 1341 4750 2034 4750 
Q 2731 4750 3128 4425 
Q 3525 4100 3525 3541 
Q 3525 3141 3298 2862 
Q 3072 2584 2669 2484 
Q 3125 2378 3379 2068 
Q 3634 1759 3634 1313 
Q 3634 634 3220 271 
Q 2806 -91 2034 -91 
Q 1263 -91 848 271 
Q 434 634 434 1313 
Q 434 1759 690 2068 
Q 947 2378 1403 2484 
z
M 1172 3481 
Q 1172 3119 1398 2916 
Q 1625 2713 2034 2713 
Q 2441 2713 2670 2916 
Q 2900 3119 2900 3481 
Q 2900 3844 2670 4047 
Q 2441 4250 2034 4250 
Q 1625 4250 1398 4047 
Q 1172 3844 1172 3481 
z
" transform="scale(0.015625)"/>
       </defs>
       <use xlink:href="#DejaVuSans-30"/>
       <use xlink:href="#DejaVuSans-2e" x="63.623047"/>
       <use xlink:href="#DejaVuSans-38" x="95.410156"/>
      </g>
     </g>
    </g>
   </g>
   <g id="matplotlib.axis_2">
    <g id="ytick_1">
     <g id="line2d_9">
      <defs>
       <path id="m90a76341a8" d="M 0 0 
L -3.5 0 
" style="stroke: #000000; stroke-width: 0.8"/>
      </defs>
      <g>
       <use xlink:href="#m90a76341a8" x="57.412267" y="330.274133" style="stroke: #000000; stroke-width: 0.8"/>
      </g>
     </g>
     <g id="text_9">
      <!-- 0 -->
      <g transform="translate(44.049767 334.073352) scale(0.1 -0.1)">
       <use xlink:href="#DejaVuSans-30"/>
      </g>
     </g>
    </g>
    <g id="ytick_2">
     <g id="line2d_10">
      <g>
       <use xlink:href="#m90a76341a8" x="57.412267" y="287.281097" style="stroke: #000000; stroke-width: 0.8"/>
      </g>
     </g>
     <g id="text_10">
      <!-- 10 -->
      <g transform="translate(37.687267 291.080316) scale(0.1 -0.1)">
       <use xlink:href="#DejaVuSans-31"/>
       <use xlink:href="#DejaVuSans-30" x="63.623047"/>
      </g>
     </g>
    </g>
    <g id="ytick_3">
     <g id="line2d_11">
      <g>
       <use xlink:href="#m90a76341a8" x="57.412267" y="244.288061" style="stroke: #000000; stroke-width: 0.8"/>
      </g>
     </g>
     <g id="text_11">
      <!-- 20 -->
      <g transform="translate(37.687267 248.08728) scale(0.1 -0.1)">
       <use xlink:href="#DejaVuSans-32"/>
       <use xlink:href="#DejaVuSans-30" x="63.623047"/>
      </g>
     </g>
    </g>
    <g id="ytick_4">
     <g id="line2d_12">
      <g>
       <use xlink:href="#m90a76341a8" x="57.412267" y="201.295025" style="stroke: #000000; stroke-width: 0.8"/>
      </g>
     </g>
     <g id="text_12">
      <!-- 30 -->
      <g transform="translate(37.687267 205.094244) scale(0.1 -0.1)">
       <use xlink:href="#DejaVuSans-33"/>
       <use xlink:href="#DejaVuSans-30" x="63.623047"/>
      </g>
     </g>
    </g>
    <g id="ytick_5">
     <g id="line2d_13">
      <g>
       <use xlink:href="#m90a76341a8" x="57.412267" y="158.301989" style="stroke: #000000; stroke-width: 0.8"/>
      </g>
     </g>
     <g id="text_13">
      <!-- 40 -->
      <g transform="translate(37.687267 162.101208) scale(0.1 -0.1)">
       <use xlink:href="#DejaVuSans-34"/>
       <use xlink:href="#DejaVuSans-30" x="63.623047"/>
      </g>
     </g>
    </g>
    <g id="ytick_6">
     <g id="line2d_14">
      <g>
       <use xlink:href="#m90a76341a8" x="57.412267" y="115.308953" style="stroke: #000000; stroke-width: 0.8"/>
      </g>
     </g>
     <g id="text_14">
      <!-- 50 -->
      <g transform="translate(37.687267 119.108172) scale(0.1 -0.1)">
       <use xlink:href="#DejaVuSans-35"/>
       <use xlink:href="#DejaVuSans-30" x="63.623047"/>
      </g>
     </g>
    </g>
    <g id="ytick_7">
     <g id="line2d_15">
      <g>
       <use xlink:href="#m90a76341a8" x="57.412267" y="72.315917" style="stroke: #000000; stroke-width: 0.8"/>
      </g>
     </g>
     <g id="text_15">
      <!-- 60 -->
      <g transform="translate(37.687267 76.115136) scale(0.1 -0.1)">
       <use xlink:href="#DejaVuSans-36"/>
       <use xlink:href="#DejaVuSans-30" x="63.623047"/>
      </g>
     </g>
    </g>
   </g>
   <g id="patch_3">
    <path d="M 87.477527 330.274133 
L 87.477527 231.39015 
L 116.871261 231.39015 
L 116.871261 270.083883 
L 146.264994 270.083883 
L 146.264994 162.601293 
L 175.658728 162.601293 
L 175.658728 119.608257 
L 205.052461 119.608257 
L 205.052461 179.798507 
L 234.446195 179.798507 
L 234.446195 59.418006 
L 263.839928 59.418006 
L 263.839928 192.696418 
L 293.233661 192.696418 
L 293.233661 128.206864 
L 322.627395 128.206864 
L 322.627395 257.185972 
L 352.021128 257.185972 
L 352.021128 313.076919 
L 381.414862 313.076919 
L 381.414862 214.192936 
L 410.808595 214.192936 
L 410.808595 270.083883 
L 440.202329 270.083883 
L 440.202329 308.777615 
L 469.596062 308.777615 
L 469.596062 261.485276 
L 498.989796 261.485276 
L 498.989796 222.791543 
L 528.383529 222.791543 
L 528.383529 287.281097 
L 557.777262 287.281097 
L 557.777262 291.580401 
L 587.170996 291.580401 
L 587.170996 321.675526 
L 616.564729 321.675526 
L 616.564729 308.777615 
L 645.958463 308.777615 
L 645.958463 270.083883 
L 675.352196 270.083883 
L 675.352196 330.274133 
" clip-path="url(#pecc0d84188)" style="fill: none; opacity: 0.8; stroke: #1f77b4; stroke-linejoin: miter"/>
   </g>
   <g id="patch_4">
    <path d="M 90.919774 330.274133 
L 90.919774 321.675526 
L 119.849949 321.675526 
L 119.849949 175.499204 
L 148.780124 175.499204 
L 148.780124 222.791543 
L 177.710299 222.791543 
L 177.710299 93.812435 
L 206.640474 93.812435 
L 206.640474 248.587365 
L 235.570649 248.587365 
L 235.570649 72.315917 
L 264.500824 72.315917 
L 264.500824 145.404078 
L 293.430999 145.404078 
L 293.430999 162.601293 
L 322.361174 162.601293 
L 322.361174 239.988758 
L 351.29135 239.988758 
L 351.29135 270.083883 
L 380.221525 270.083883 
L 380.221525 248.587365 
L 409.1517 248.587365 
L 409.1517 244.288061 
L 438.081875 244.288061 
L 438.081875 287.281097 
L 467.01205 287.281097 
L 467.01205 239.988758 
L 495.942225 239.988758 
L 495.942225 244.288061 
L 524.8724 244.288061 
L 524.8724 244.288061 
L 553.802575 244.288061 
L 553.802575 295.879705 
L 582.73275 295.879705 
L 582.73275 325.97483 
L 611.662925 325.97483 
L 611.662925 295.879705 
L 640.5931 295.879705 
L 640.5931 291.580401 
L 669.523275 291.580401 
L 669.523275 330.274133 
" clip-path="url(#pecc0d84188)" style="fill: none; opacity: 0.8; stroke: #ff7f0e; stroke-linejoin: miter"/>
   </g>
   <g id="patch_5">
    <path d="M 87.887382 330.274133 
L 87.887382 244.288061 
L 117.93215 244.288061 
L 117.93215 252.886668 
L 147.976918 252.886668 
L 147.976918 115.308953 
L 178.021686 115.308953 
L 178.021686 179.798507 
L 208.066454 179.798507 
L 208.066454 244.288061 
L 238.111222 244.288061 
L 238.111222 76.615221 
L 268.15599 76.615221 
L 268.15599 106.710346 
L 298.200757 106.710346 
L 298.200757 136.805471 
L 328.245525 136.805471 
L 328.245525 282.981794 
L 358.290293 282.981794 
L 358.290293 287.281097 
L 388.335061 287.281097 
L 388.335061 201.295025 
L 418.379829 201.295025 
L 418.379829 287.281097 
L 448.424597 287.281097 
L 448.424597 300.179008 
L 478.469364 300.179008 
L 478.469364 252.886668 
L 508.514132 252.886668 
L 508.514132 222.791543 
L 538.5589 222.791543 
L 538.5589 261.485276 
L 568.603668 261.485276 
L 568.603668 313.076919 
L 598.648436 313.076919 
L 598.648436 321.675526 
L 628.693204 321.675526 
L 628.693204 287.281097 
L 658.737972 287.281097 
L 658.737972 295.879705 
L 688.782739 295.879705 
L 688.782739 330.274133 
" clip-path="url(#pecc0d84188)" style="fill: none; opacity: 0.8; stroke: #2ca02c; stroke-linejoin: miter"/>
   </g>
   <g id="patch_6">
    <path d="M 57.412267 330.274133 
L 57.412267 45.8752 
" style="fill: none; stroke: #000000; stroke-width: 0.8; stroke-linejoin: miter; stroke-linecap: square"/>
   </g>
   <g id="patch_7">
    <path d="M 718.848 330.274133 
L 718.848 45.8752 
" style="fill: none; stroke: #000000; stroke-width: 0.8; stroke-linejoin: miter; stroke-linecap: square"/>
   </g>
   <g id="patch_8">
    <path d="M 57.412267 330.274133 
L 718.848 330.274133 
" style="fill: none; stroke: #000000; stroke-width: 0.8; stroke-linejoin: miter; stroke-linecap: square"/>
   </g>
   <g id="patch_9">
    <path d="M 57.412267 45.8752 
L 718.848 45.8752 
" style="fill: none; stroke: #000000; stroke-width: 0.8; stroke-linejoin: miter; stroke-linecap: square"/>
   </g>
   <g id="text_16">
    <!-- Peak performance distribution -->
    <g transform="translate(297.454196 39.8752) scale(0.12 -0.12)">
     <defs>
      <path id="DejaVuSans-50" d="M 1259 4147 
L 1259 2394 
L 2053 2394 
Q 2494 2394 2734 2622 
Q 2975 2850 2975 3272 
Q 2975 3691 2734 3919 
Q 2494 4147 2053 4147 
L 1259 4147 
z
M 628 4666 
L 2053 4666 
Q 2838 4666 3239 4311 
Q 3641 3956 3641 3272 
Q 3641 2581 3239 2228 
Q 2838 1875 2053 1875 
L 1259 1875 
L 1259 0 
L 628 0 
L 628 4666 
z
" transform="scale(0.015625)"/>
      <path id="DejaVuSans-65" d="M 3597 1894 
L 3597 1613 
L 953 1613 
Q 991 1019 1311 708 
Q 1631 397 2203 397 
Q 2534 397 2845 478 
Q 3156 559 3463 722 
L 3463 178 
Q 3153 47 2828 -22 
Q 2503 -91 2169 -91 
Q 1331 -91 842 396 
Q 353 884 353 1716 
Q 353 2575 817 3079 
Q 1281 3584 2069 3584 
Q 2775 3584 3186 3129 
Q 3597 2675 3597 1894 
z
M 3022 2063 
Q 3016 2534 2758 2815 
Q 2500 3097 2075 3097 
Q 1594 3097 1305 2825 
Q 1016 2553 972 2059 
L 3022 2063 
z
" transform="scale(0.015625)"/>
      <path id="DejaVuSans-61" d="M 2194 1759 
Q 1497 1759 1228 1600 
Q 959 1441 959 1056 
Q 959 750 1161 570 
Q 1363 391 1709 391 
Q 2188 391 2477 730 
Q 2766 1069 2766 1631 
L 2766 1759 
L 2194 1759 
z
M 3341 1997 
L 3341 0 
L 2766 0 
L 2766 531 
Q 2569 213 2275 61 
Q 1981 -91 1556 -91 
Q 1019 -91 701 211 
Q 384 513 384 1019 
Q 384 1609 779 1909 
Q 1175 2209 1959 2209 
L 2766 2209 
L 2766 2266 
Q 2766 2663 2505 2880 
Q 2244 3097 1772 3097 
Q 1472 3097 1187 3025 
Q 903 2953 641 2809 
L 641 3341 
Q 956 3463 1253 3523 
Q 1550 3584 1831 3584 
Q 2591 3584 2966 3190 
Q 3341 2797 3341 1997 
z
" transform="scale(0.015625)"/>
      <path id="DejaVuSans-6b" d="M 581 4863 
L 1159 4863 
L 1159 1991 
L 2875 3500 
L 3609 3500 
L 1753 1863 
L 3688 0 
L 2938 0 
L 1159 1709 
L 1159 0 
L 581 0 
L 581 4863 
z
" transform="scale(0.015625)"/>
      <path id="DejaVuSans-20" transform="scale(0.015625)"/>
      <path id="DejaVuSans-70" d="M 1159 525 
L 1159 -1331 
L 581 -1331 
L 581 3500 
L 1159 3500 
L 1159 2969 
Q 1341 3281 1617 3432 
Q 1894 3584 2278 3584 
Q 2916 3584 3314 3078 
Q 3713 2572 3713 1747 
Q 3713 922 3314 415 
Q 2916 -91 2278 -91 
Q 1894 -91 1617 61 
Q 1341 213 1159 525 
z
M 3116 1747 
Q 3116 2381 2855 2742 
Q 2594 3103 2138 3103 
Q 1681 3103 1420 2742 
Q 1159 2381 1159 1747 
Q 1159 1113 1420 752 
Q 1681 391 2138 391 
Q 2594 391 2855 752 
Q 3116 1113 3116 1747 
z
" transform="scale(0.015625)"/>
      <path id="DejaVuSans-72" d="M 2631 2963 
Q 2534 3019 2420 3045 
Q 2306 3072 2169 3072 
Q 1681 3072 1420 2755 
Q 1159 2438 1159 1844 
L 1159 0 
L 581 0 
L 581 3500 
L 1159 3500 
L 1159 2956 
Q 1341 3275 1631 3429 
Q 1922 3584 2338 3584 
Q 2397 3584 2469 3576 
Q 2541 3569 2628 3553 
L 2631 2963 
z
" transform="scale(0.015625)"/>
      <path id="DejaVuSans-66" d="M 2375 4863 
L 2375 4384 
L 1825 4384 
Q 1516 4384 1395 4259 
Q 1275 4134 1275 3809 
L 1275 3500 
L 2222 3500 
L 2222 3053 
L 1275 3053 
L 1275 0 
L 697 0 
L 697 3053 
L 147 3053 
L 147 3500 
L 697 3500 
L 697 3744 
Q 697 4328 969 4595 
Q 1241 4863 1831 4863 
L 2375 4863 
z
" transform="scale(0.015625)"/>
      <path id="DejaVuSans-6f" d="M 1959 3097 
Q 1497 3097 1228 2736 
Q 959 2375 959 1747 
Q 959 1119 1226 758 
Q 1494 397 1959 397 
Q 2419 397 2687 759 
Q 2956 1122 2956 1747 
Q 2956 2369 2687 2733 
Q 2419 3097 1959 3097 
z
M 1959 3584 
Q 2709 3584 3137 3096 
Q 3566 2609 3566 1747 
Q 3566 888 3137 398 
Q 2709 -91 1959 -91 
Q 1206 -91 779 398 
Q 353 888 353 1747 
Q 353 2609 779 3096 
Q 1206 3584 1959 3584 
z
" transform="scale(0.015625)"/>
      <path id="DejaVuSans-6d" d="M 3328 2828 
Q 3544 3216 3844 3400 
Q 4144 3584 4550 3584 
Q 5097 3584 5394 3201 
Q 5691 2819 5691 2113 
L 5691 0 
L 5113 0 
L 5113 2094 
Q 5113 2597 4934 2840 
Q 4756 3084 4391 3084 
Q 3944 3084 3684 2787 
Q 3425 2491 3425 1978 
L 3425 0 
L 2847 0 
L 2847 2094 
Q 2847 2600 2669 2842 
Q 2491 3084 2119 3084 
Q 1678 3084 1418 2786 
Q 1159 2488 1159 1978 
L 1159 0 
L 581 0 
L 581 3500 
L 1159 3500 
L 1159 2956 
Q 1356 3278 1631 3431 
Q 1906 3584 2284 3584 
Q 2666 3584 2933 3390 
Q 3200 3197 3328 2828 
z
" transform="scale(0.015625)"/>
      <path id="DejaVuSans-6e" d="M 3513 2113 
L 3513 0 
L 2938 0 
L 2938 2094 
Q 2938 2591 2744 2837 
Q 2550 3084 2163 3084 
Q 1697 3084 1428 2787 
Q 1159 2491 1159 1978 
L 1159 0 
L 581 0 
L 581 3500 
L 1159 3500 
L 1159 2956 
Q 1366 3272 1645 3428 
Q 1925 3584 2291 3584 
Q 2894 3584 3203 3211 
Q 3513 2838 3513 2113 
z
" transform="scale(0.015625)"/>
      <path id="DejaVuSans-63" d="M 3122 3366 
L 3122 2828 
Q 2878 2963 2633 3030 
Q 2388 3097 2138 3097 
Q 1578 3097 1268 2742 
Q 959 2388 959 1747 
Q 959 1106 1268 751 
Q 1578 397 2138 397 
Q 2388 397 2633 464 
Q 2878 531 3122 666 
L 3122 134 
Q 2881 22 2623 -34 
Q 2366 -91 2075 -91 
Q 1284 -91 818 406 
Q 353 903 353 1747 
Q 353 2603 823 3093 
Q 1294 3584 2113 3584 
Q 2378 3584 2631 3529 
Q 2884 3475 3122 3366 
z
" transform="scale(0.015625)"/>
      <path id="DejaVuSans-64" d="M 2906 2969 
L 2906 4863 
L 3481 4863 
L 3481 0 
L 2906 0 
L 2906 525 
Q 2725 213 2448 61 
Q 2172 -91 1784 -91 
Q 1150 -91 751 415 
Q 353 922 353 1747 
Q 353 2572 751 3078 
Q 1150 3584 1784 3584 
Q 2172 3584 2448 3432 
Q 2725 3281 2906 2969 
z
M 947 1747 
Q 947 1113 1208 752 
Q 1469 391 1925 391 
Q 2381 391 2643 752 
Q 2906 1113 2906 1747 
Q 2906 2381 2643 2742 
Q 2381 3103 1925 3103 
Q 1469 3103 1208 2742 
Q 947 2381 947 1747 
z
" transform="scale(0.015625)"/>
      <path id="DejaVuSans-69" d="M 603 3500 
L 1178 3500 
L 1178 0 
L 603 0 
L 603 3500 
z
M 603 4863 
L 1178 4863 
L 1178 4134 
L 603 4134 
L 603 4863 
z
" transform="scale(0.015625)"/>
      <path id="DejaVuSans-73" d="M 2834 3397 
L 2834 2853 
Q 2591 2978 2328 3040 
Q 2066 3103 1784 3103 
Q 1356 3103 1142 2972 
Q 928 2841 928 2578 
Q 928 2378 1081 2264 
Q 1234 2150 1697 2047 
L 1894 2003 
Q 2506 1872 2764 1633 
Q 3022 1394 3022 966 
Q 3022 478 2636 193 
Q 2250 -91 1575 -91 
Q 1294 -91 989 -36 
Q 684 19 347 128 
L 347 722 
Q 666 556 975 473 
Q 1284 391 1588 391 
Q 1994 391 2212 530 
Q 2431 669 2431 922 
Q 2431 1156 2273 1281 
Q 2116 1406 1581 1522 
L 1381 1569 
Q 847 1681 609 1914 
Q 372 2147 372 2553 
Q 372 3047 722 3315 
Q 1072 3584 1716 3584 
Q 2034 3584 2315 3537 
Q 2597 3491 2834 3397 
z
" transform="scale(0.015625)"/>
      <path id="DejaVuSans-74" d="M 1172 4494 
L 1172 3500 
L 2356 3500 
L 2356 3053 
L 1172 3053 
L 1172 1153 
Q 1172 725 1289 603 
Q 1406 481 1766 481 
L 2356 481 
L 2356 0 
L 1766 0 
Q 1100 0 847 248 
Q 594 497 594 1153 
L 594 3053 
L 172 3053 
L 172 3500 
L 594 3500 
L 594 4494 
L 1172 4494 
z
" transform="scale(0.015625)"/>
      <path id="DejaVuSans-62" d="M 3116 1747 
Q 3116 2381 2855 2742 
Q 2594 3103 2138 3103 
Q 1681 3103 1420 2742 
Q 1159 2381 1159 1747 
Q 1159 1113 1420 752 
Q 1681 391 2138 391 
Q 2594 391 2855 752 
Q 3116 1113 3116 1747 
z
M 1159 2969 
Q 1341 3281 1617 3432 
Q 1894 3584 2278 3584 
Q 2916 3584 3314 3078 
Q 3713 2572 3713 1747 
Q 3713 922 3314 415 
Q 2916 -91 2278 -91 
Q 1894 -91 1617 61 
Q 1341 213 1159 525 
L 1159 0 
L 581 0 
L 581 4863 
L 1159 4863 
L 1159 2969 
z
" transform="scale(0.015625)"/>
      <path id="DejaVuSans-75" d="M 544 1381 
L 544 3500 
L 1119 3500 
L 1119 1403 
Q 1119 906 1312 657 
Q 1506 409 1894 409 
Q 2359 409 2629 706 
Q 2900 1003 2900 1516 
L 2900 3500 
L 3475 3500 
L 3475 0 
L 2900 0 
L 2900 538 
Q 2691 219 2414 64 
Q 2138 -91 1772 -91 
Q 1169 -91 856 284 
Q 544 659 544 1381 
z
M 1991 3584 
L 1991 3584 
z
" transform="scale(0.015625)"/>
     </defs>
     <use xlink:href="#DejaVuSans-50"/>
     <use xlink:href="#DejaVuSans-65" x="56.677734"/>
     <use xlink:href="#DejaVuSans-61" x="118.201172"/>
     <use xlink:href="#DejaVuSans-6b" x="179.480469"/>
     <use xlink:href="#DejaVuSans-20" x="237.390625"/>
     <use xlink:href="#DejaVuSans-70" x="269.177734"/>
     <use xlink:href="#DejaVuSans-65" x="332.654297"/>
     <use xlink:href="#DejaVuSans-72" x="394.177734"/>
     <use xlink:href="#DejaVuSans-66" x="435.291016"/>
     <use xlink:href="#DejaVuSans-6f" x="470.496094"/>
     <use xlink:href="#DejaVuSans-72" x="531.677734"/>
     <use xlink:href="#DejaVuSans-6d" x="571.041016"/>
     <use xlink:href="#DejaVuSans-61" x="668.453125"/>
     <use xlink:href="#DejaVuSans-6e" x="729.732422"/>
     <use xlink:href="#DejaVuSans-63" x="793.111328"/>
     <use xlink:href="#DejaVuSans-65" x="848.091797"/>
     <use xlink:href="#DejaVuSans-20" x="909.615234"/>
     <use xlink:href="#DejaVuSans-64" x="941.402344"/>
     <use xlink:href="#DejaVuSans-69" x="1004.878906"/>
     <use xlink:href="#DejaVuSans-73" x="1032.662109"/>
     <use xlink:href="#DejaVuSans-74" x="1084.761719"/>
     <use xlink:href="#DejaVuSans-72" x="1123.970703"/>
     <use xlink:href="#DejaVuSans-69" x="1165.083984"/>
     <use xlink:href="#DejaVuSans-62" x="1192.867188"/>
     <use xlink:href="#DejaVuSans-75" x="1256.34375"/>
     <use xlink:href="#DejaVuSans-74" x="1319.722656"/>
     <use xlink:href="#DejaVuSans-69" x="1358.931641"/>
     <use xlink:href="#DejaVuSans-6f" x="1386.714844"/>
     <use xlink:href="#DejaVuSans-6e" x="1447.896484"/>
    </g>
   </g>
   <g id="legend_1">
    <g id="patch_10">
     <path d="M 660.268312 97.909575 
L 711.848 97.909575 
Q 713.848 97.909575 713.848 95.909575 
L 713.848 52.8752 
Q 713.848 50.8752 711.848 50.8752 
L 660.268312 50.8752 
Q 658.268312 50.8752 658.268312 52.8752 
L 658.268312 95.909575 
Q 658.268312 97.909575 660.268312 97.909575 
z
" style="fill: #ffffff; opacity: 0.8; stroke: #cccccc; stroke-linejoin: miter"/>
    </g>
    <g id="patch_11">
     <path d="M 662.268312 62.473637 
L 682.268312 62.473637 
L 682.268312 55.473637 
L 662.268312 55.473637 
L 662.268312 62.473637 
z
" style="fill: none; opacity: 0.8; stroke: #1f77b4; stroke-linejoin: miter"/>
    </g>
    <g id="text_17">
     <!-- tvm -->
     <g transform="translate(690.268312 62.473637) scale(0.1 -0.1)">
      <defs>
       <path id="DejaVuSans-76" d="M 191 3500 
L 800 3500 
L 1894 563 
L 2988 3500 
L 3597 3500 
L 2284 0 
L 1503 0 
L 191 3500 
z
" transform="scale(0.015625)"/>
      </defs>
      <use xlink:href="#DejaVuSans-74"/>
      <use xlink:href="#DejaVuSans-76" x="39.208984"/>
      <use xlink:href="#DejaVuSans-6d" x="98.388672"/>
     </g>
    </g>
    <g id="patch_12">
     <path d="M 662.268312 77.151762 
L 682.268312 77.151762 
L 682.268312 70.151762 
L 662.268312 70.151762 
L 662.268312 77.151762 
z
" style="fill: none; opacity: 0.8; stroke: #ff7f0e; stroke-linejoin: miter"/>
    </g>
    <g id="text_18">
     <!-- mlir -->
     <g transform="translate(690.268312 77.151762) scale(0.1 -0.1)">
      <defs>
       <path id="DejaVuSans-6c" d="M 603 4863 
L 1178 4863 
L 1178 0 
L 603 0 
L 603 4863 
z
" transform="scale(0.015625)"/>
      </defs>
      <use xlink:href="#DejaVuSans-6d"/>
      <use xlink:href="#DejaVuSans-6c" x="97.412109"/>
      <use xlink:href="#DejaVuSans-69" x="125.195312"/>
      <use xlink:href="#DejaVuSans-72" x="152.978516"/>
     </g>
    </g>
    <g id="patch_13">
     <path d="M 662.268312 91.829887 
L 682.268312 91.829887 
L 682.268312 84.829887 
L 662.268312 84.829887 
L 662.268312 91.829887 
z
" style="fill: none; opacity: 0.8; stroke: #2ca02c; stroke-linejoin: miter"/>
    </g>
    <g id="text_19">
     <!-- jir -->
     <g transform="translate(690.268312 91.829887) scale(0.1 -0.1)">
      <defs>
       <path id="DejaVuSans-6a" d="M 603 3500 
L 1178 3500 
L 1178 -63 
Q 1178 -731 923 -1031 
Q 669 -1331 103 -1331 
L -116 -1331 
L -116 -844 
L 38 -844 
Q 366 -844 484 -692 
Q 603 -541 603 -63 
L 603 3500 
z
M 603 4863 
L 1178 4863 
L 1178 4134 
L 603 4134 
L 603 4863 
z
" transform="scale(0.015625)"/>
      </defs>
      <use xlink:href="#DejaVuSans-6a"/>
      <use xlink:href="#DejaVuSans-69" x="27.783203"/>
      <use xlink:href="#DejaVuSans-72" x="55.566406"/>
     </g>
    </g>
   </g>
  </g>
  <g id="axes_2">
   <g id="patch_14">
    <path d="M 57.412267 689.698133 
L 718.848 689.698133 
L 718.848 405.2992 
L 57.412267 405.2992 
z
" style="fill: #ffffff"/>
   </g>
   <g id="matplotlib.axis_3">
    <g id="xtick_9">
     <g id="line2d_16">
      <g>
       <use xlink:href="#m52d15b1365" x="126.65534" y="689.698133" style="stroke: #000000; stroke-width: 0.8"/>
      </g>
     </g>
     <g id="text_20">
      <!-- 0.1 -->
      <g transform="translate(118.703778 704.296571) scale(0.1 -0.1)">
       <use xlink:href="#DejaVuSans-30"/>
       <use xlink:href="#DejaVuSans-2e" x="63.623047"/>
       <use xlink:href="#DejaVuSans-31" x="95.410156"/>
      </g>
     </g>
    </g>
    <g id="xtick_10">
     <g id="line2d_17">
      <g>
       <use xlink:href="#m52d15b1365" x="201.594803" y="689.698133" style="stroke: #000000; stroke-width: 0.8"/>
      </g>
     </g>
     <g id="text_21">
      <!-- 0.2 -->
      <g transform="translate(193.64324 704.296571) scale(0.1 -0.1)">
       <use xlink:href="#DejaVuSans-30"/>
       <use xlink:href="#DejaVuSans-2e" x="63.623047"/>
       <use xlink:href="#DejaVuSans-32" x="95.410156"/>
      </g>
     </g>
    </g>
    <g id="xtick_11">
     <g id="line2d_18">
      <g>
       <use xlink:href="#m52d15b1365" x="276.534265" y="689.698133" style="stroke: #000000; stroke-width: 0.8"/>
      </g>
     </g>
     <g id="text_22">
      <!-- 0.3 -->
      <g transform="translate(268.582702 704.296571) scale(0.1 -0.1)">
       <use xlink:href="#DejaVuSans-30"/>
       <use xlink:href="#DejaVuSans-2e" x="63.623047"/>
       <use xlink:href="#DejaVuSans-33" x="95.410156"/>
      </g>
     </g>
    </g>
    <g id="xtick_12">
     <g id="line2d_19">
      <g>
       <use xlink:href="#m52d15b1365" x="351.473727" y="689.698133" style="stroke: #000000; stroke-width: 0.8"/>
      </g>
     </g>
     <g id="text_23">
      <!-- 0.4 -->
      <g transform="translate(343.522165 704.296571) scale(0.1 -0.1)">
       <use xlink:href="#DejaVuSans-30"/>
       <use xlink:href="#DejaVuSans-2e" x="63.623047"/>
       <use xlink:href="#DejaVuSans-34" x="95.410156"/>
      </g>
     </g>
    </g>
    <g id="xtick_13">
     <g id="line2d_20">
      <g>
       <use xlink:href="#m52d15b1365" x="426.413189" y="689.698133" style="stroke: #000000; stroke-width: 0.8"/>
      </g>
     </g>
     <g id="text_24">
      <!-- 0.5 -->
      <g transform="translate(418.461627 704.296571) scale(0.1 -0.1)">
       <use xlink:href="#DejaVuSans-30"/>
       <use xlink:href="#DejaVuSans-2e" x="63.623047"/>
       <use xlink:href="#DejaVuSans-35" x="95.410156"/>
      </g>
     </g>
    </g>
    <g id="xtick_14">
     <g id="line2d_21">
      <g>
       <use xlink:href="#m52d15b1365" x="501.352652" y="689.698133" style="stroke: #000000; stroke-width: 0.8"/>
      </g>
     </g>
     <g id="text_25">
      <!-- 0.6 -->
      <g transform="translate(493.401089 704.296571) scale(0.1 -0.1)">
       <use xlink:href="#DejaVuSans-30"/>
       <use xlink:href="#DejaVuSans-2e" x="63.623047"/>
       <use xlink:href="#DejaVuSans-36" x="95.410156"/>
      </g>
     </g>
    </g>
    <g id="xtick_15">
     <g id="line2d_22">
      <g>
       <use xlink:href="#m52d15b1365" x="576.292114" y="689.698133" style="stroke: #000000; stroke-width: 0.8"/>
      </g>
     </g>
     <g id="text_26">
      <!-- 0.7 -->
      <g transform="translate(568.340551 704.296571) scale(0.1 -0.1)">
       <use xlink:href="#DejaVuSans-30"/>
       <use xlink:href="#DejaVuSans-2e" x="63.623047"/>
       <use xlink:href="#DejaVuSans-37" x="95.410156"/>
      </g>
     </g>
    </g>
    <g id="xtick_16">
     <g id="line2d_23">
      <g>
       <use xlink:href="#m52d15b1365" x="651.231576" y="689.698133" style="stroke: #000000; stroke-width: 0.8"/>
      </g>
     </g>
     <g id="text_27">
      <!-- 0.8 -->
      <g transform="translate(643.280014 704.296571) scale(0.1 -0.1)">
       <use xlink:href="#DejaVuSans-30"/>
       <use xlink:href="#DejaVuSans-2e" x="63.623047"/>
       <use xlink:href="#DejaVuSans-38" x="95.410156"/>
      </g>
     </g>
    </g>
   </g>
   <g id="matplotlib.axis_4">
    <g id="ytick_8">
     <g id="line2d_24">
      <g>
       <use xlink:href="#m90a76341a8" x="57.412267" y="689.698133" style="stroke: #000000; stroke-width: 0.8"/>
      </g>
     </g>
     <g id="text_28">
      <!-- 0.0 -->
      <g transform="translate(34.509142 693.497352) scale(0.1 -0.1)">
       <use xlink:href="#DejaVuSans-30"/>
       <use xlink:href="#DejaVuSans-2e" x="63.623047"/>
       <use xlink:href="#DejaVuSans-30" x="95.410156"/>
      </g>
     </g>
    </g>
    <g id="ytick_9">
     <g id="line2d_25">
      <g>
       <use xlink:href="#m90a76341a8" x="57.412267" y="635.526908" style="stroke: #000000; stroke-width: 0.8"/>
      </g>
     </g>
     <g id="text_29">
      <!-- 0.2 -->
      <g transform="translate(34.509142 639.326127) scale(0.1 -0.1)">
       <use xlink:href="#DejaVuSans-30"/>
       <use xlink:href="#DejaVuSans-2e" x="63.623047"/>
       <use xlink:href="#DejaVuSans-32" x="95.410156"/>
      </g>
     </g>
    </g>
    <g id="ytick_10">
     <g id="line2d_26">
      <g>
       <use xlink:href="#m90a76341a8" x="57.412267" y="581.355683" style="stroke: #000000; stroke-width: 0.8"/>
      </g>
     </g>
     <g id="text_30">
      <!-- 0.4 -->
      <g transform="translate(34.509142 585.154901) scale(0.1 -0.1)">
       <use xlink:href="#DejaVuSans-30"/>
       <use xlink:href="#DejaVuSans-2e" x="63.623047"/>
       <use xlink:href="#DejaVuSans-34" x="95.410156"/>
      </g>
     </g>
    </g>
    <g id="ytick_11">
     <g id="line2d_27">
      <g>
       <use xlink:href="#m90a76341a8" x="57.412267" y="527.184457" style="stroke: #000000; stroke-width: 0.8"/>
      </g>
     </g>
     <g id="text_31">
      <!-- 0.6 -->
      <g transform="translate(34.509142 530.983676) scale(0.1 -0.1)">
       <use xlink:href="#DejaVuSans-30"/>
       <use xlink:href="#DejaVuSans-2e" x="63.623047"/>
       <use xlink:href="#DejaVuSans-36" x="95.410156"/>
      </g>
     </g>
    </g>
    <g id="ytick_12">
     <g id="line2d_28">
      <g>
       <use xlink:href="#m90a76341a8" x="57.412267" y="473.013232" style="stroke: #000000; stroke-width: 0.8"/>
      </g>
     </g>
     <g id="text_32">
      <!-- 0.8 -->
      <g transform="translate(34.509142 476.81245) scale(0.1 -0.1)">
       <use xlink:href="#DejaVuSans-30"/>
       <use xlink:href="#DejaVuSans-2e" x="63.623047"/>
       <use xlink:href="#DejaVuSans-38" x="95.410156"/>
      </g>
     </g>
    </g>
    <g id="ytick_13">
     <g id="line2d_29">
      <g>
       <use xlink:href="#m90a76341a8" x="57.412267" y="418.842006" style="stroke: #000000; stroke-width: 0.8"/>
      </g>
     </g>
     <g id="text_33">
      <!-- 1.0 -->
      <g transform="translate(34.509142 422.641225) scale(0.1 -0.1)">
       <use xlink:href="#DejaVuSans-31"/>
       <use xlink:href="#DejaVuSans-2e" x="63.623047"/>
       <use xlink:href="#DejaVuSans-30" x="95.410156"/>
      </g>
     </g>
    </g>
   </g>
   <g id="patch_15">
    <path d="M 87.477527 689.698133 
L 87.477527 675.854376 
L 116.871261 675.854376 
L 116.871261 667.427741 
L 146.264994 667.427741 
L 146.264994 643.953543 
L 175.658728 643.953543 
L 175.658728 614.46032 
L 205.052461 614.46032 
L 205.052461 593.393733 
L 234.446195 593.393733 
L 234.446195 555.473875 
L 263.839928 555.473875 
L 263.839928 536.212995 
L 293.233661 536.212995 
L 293.233661 507.923577 
L 322.627395 507.923577 
L 322.627395 497.691234 
L 352.021128 497.691234 
L 352.021128 495.283624 
L 381.414862 495.283624 
L 381.414862 479.032257 
L 410.808595 479.032257 
L 410.808595 470.605622 
L 440.202329 470.605622 
L 440.202329 467.596109 
L 469.596062 467.596109 
L 469.596062 457.965669 
L 498.989796 457.965669 
L 498.989796 442.918107 
L 528.383529 442.918107 
L 528.383529 436.899081 
L 557.777262 436.899081 
L 557.777262 431.481959 
L 587.170996 431.481959 
L 587.170996 430.278154 
L 616.564729 430.278154 
L 616.564729 427.268641 
L 645.958463 427.268641 
L 645.958463 418.842006 
L 675.352196 418.842006 
L 675.352196 689.698133 
" clip-path="url(#pb4093d5b0a)" style="fill: none; opacity: 0.8; stroke: #1f77b4; stroke-linejoin: miter"/>
   </g>
   <g id="patch_16">
    <path d="M 90.919774 689.698133 
L 90.919774 688.494328 
L 119.849949 688.494328 
L 119.849949 666.825838 
L 148.780124 666.825838 
L 148.780124 651.778276 
L 177.710299 651.778276 
L 177.710299 618.673638 
L 206.640474 618.673638 
L 206.640474 607.23749 
L 235.570649 607.23749 
L 235.570649 571.12334 
L 264.500824 571.12334 
L 264.500824 545.241532 
L 293.430999 545.241532 
L 293.430999 521.767335 
L 322.361174 521.767335 
L 322.361174 509.127382 
L 351.29135 509.127382 
L 351.29135 500.700747 
L 380.221525 500.700747 
L 380.221525 489.264599 
L 409.1517 489.264599 
L 409.1517 477.226549 
L 438.081875 477.226549 
L 438.081875 471.207524 
L 467.01205 471.207524 
L 467.01205 458.567572 
L 495.942225 458.567572 
L 495.942225 446.529522 
L 524.8724 446.529522 
L 524.8724 434.491471 
L 553.802575 434.491471 
L 553.802575 429.676251 
L 582.73275 429.676251 
L 582.73275 429.074349 
L 611.662925 429.074349 
L 611.662925 424.259129 
L 640.5931 424.259129 
L 640.5931 418.842006 
L 669.523275 418.842006 
L 669.523275 689.698133 
" clip-path="url(#pb4093d5b0a)" style="fill: none; opacity: 0.8; stroke: #ff7f0e; stroke-linejoin: miter"/>
   </g>
   <g id="patch_17">
    <path d="M 87.887382 689.698133 
L 87.887382 677.660083 
L 117.93215 677.660083 
L 117.93215 666.825838 
L 147.976918 666.825838 
L 147.976918 636.730713 
L 178.021686 636.730713 
L 178.021686 615.664125 
L 208.066454 615.664125 
L 208.066454 603.626075 
L 238.111222 603.626075 
L 238.111222 568.113827 
L 268.15599 568.113827 
L 268.15599 536.814897 
L 298.200757 536.814897 
L 298.200757 509.729285 
L 328.245525 509.729285 
L 328.245525 503.108357 
L 358.290293 503.108357 
L 358.290293 497.089332 
L 388.335061 497.089332 
L 388.335061 479.032257 
L 418.379829 479.032257 
L 418.379829 473.013232 
L 448.424597 473.013232 
L 448.424597 468.799914 
L 478.469364 468.799914 
L 478.469364 457.965669 
L 508.514132 457.965669 
L 508.514132 442.918107 
L 538.5589 442.918107 
L 538.5589 433.287666 
L 568.603668 433.287666 
L 568.603668 430.880056 
L 598.648436 430.880056 
L 598.648436 429.676251 
L 628.693204 429.676251 
L 628.693204 423.657226 
L 658.737972 423.657226 
L 658.737972 418.842006 
L 688.782739 418.842006 
L 688.782739 689.698133 
" clip-path="url(#pb4093d5b0a)" style="fill: none; opacity: 0.8; stroke: #2ca02c; stroke-linejoin: miter"/>
   </g>
   <g id="patch_18">
    <path d="M 57.412267 689.698133 
L 57.412267 405.2992 
" style="fill: none; stroke: #000000; stroke-width: 0.8; stroke-linejoin: miter; stroke-linecap: square"/>
   </g>
   <g id="patch_19">
    <path d="M 718.848 689.698133 
L 718.848 405.2992 
" style="fill: none; stroke: #000000; stroke-width: 0.8; stroke-linejoin: miter; stroke-linecap: square"/>
   </g>
   <g id="patch_20">
    <path d="M 57.412267 689.698133 
L 718.848 689.698133 
" style="fill: none; stroke: #000000; stroke-width: 0.8; stroke-linejoin: miter; stroke-linecap: square"/>
   </g>
   <g id="patch_21">
    <path d="M 57.412267 405.2992 
L 718.848 405.2992 
" style="fill: none; stroke: #000000; stroke-width: 0.8; stroke-linejoin: miter; stroke-linecap: square"/>
   </g>
   <g id="text_34">
    <!-- Peak performance cumulative distribution -->
    <g transform="translate(262.192946 399.2992) scale(0.12 -0.12)">
     <use xlink:href="#DejaVuSans-50"/>
     <use xlink:href="#DejaVuSans-65" x="56.677734"/>
     <use xlink:href="#DejaVuSans-61" x="118.201172"/>
     <use xlink:href="#DejaVuSans-6b" x="179.480469"/>
     <use xlink:href="#DejaVuSans-20" x="237.390625"/>
     <use xlink:href="#DejaVuSans-70" x="269.177734"/>
     <use xlink:href="#DejaVuSans-65" x="332.654297"/>
     <use xlink:href="#DejaVuSans-72" x="394.177734"/>
     <use xlink:href="#DejaVuSans-66" x="435.291016"/>
     <use xlink:href="#DejaVuSans-6f" x="470.496094"/>
     <use xlink:href="#DejaVuSans-72" x="531.677734"/>
     <use xlink:href="#DejaVuSans-6d" x="571.041016"/>
     <use xlink:href="#DejaVuSans-61" x="668.453125"/>
     <use xlink:href="#DejaVuSans-6e" x="729.732422"/>
     <use xlink:href="#DejaVuSans-63" x="793.111328"/>
     <use xlink:href="#DejaVuSans-65" x="848.091797"/>
     <use xlink:href="#DejaVuSans-20" x="909.615234"/>
     <use xlink:href="#DejaVuSans-63" x="941.402344"/>
     <use xlink:href="#DejaVuSans-75" x="996.382812"/>
     <use xlink:href="#DejaVuSans-6d" x="1059.761719"/>
     <use xlink:href="#DejaVuSans-75" x="1157.173828"/>
     <use xlink:href="#DejaVuSans-6c" x="1220.552734"/>
     <use xlink:href="#DejaVuSans-61" x="1248.335938"/>
     <use xlink:href="#DejaVuSans-74" x="1309.615234"/>
     <use xlink:href="#DejaVuSans-69" x="1348.824219"/>
     <use xlink:href="#DejaVuSans-76" x="1376.607422"/>
     <use xlink:href="#DejaVuSans-65" x="1435.787109"/>
     <use xlink:href="#DejaVuSans-20" x="1497.310547"/>
     <use xlink:href="#DejaVuSans-64" x="1529.097656"/>
     <use xlink:href="#DejaVuSans-69" x="1592.574219"/>
     <use xlink:href="#DejaVuSans-73" x="1620.357422"/>
     <use xlink:href="#DejaVuSans-74" x="1672.457031"/>
     <use xlink:href="#DejaVuSans-72" x="1711.666016"/>
     <use xlink:href="#DejaVuSans-69" x="1752.779297"/>
     <use xlink:href="#DejaVuSans-62" x="1780.5625"/>
     <use xlink:href="#DejaVuSans-75" x="1844.039062"/>
     <use xlink:href="#DejaVuSans-74" x="1907.417969"/>
     <use xlink:href="#DejaVuSans-69" x="1946.626953"/>
     <use xlink:href="#DejaVuSans-6f" x="1974.410156"/>
     <use xlink:href="#DejaVuSans-6e" x="2035.591797"/>
    </g>
   </g>
   <g id="legend_2">
    <g id="patch_22">
     <path d="M 64.412267 457.333575 
L 115.991954 457.333575 
Q 117.991954 457.333575 117.991954 455.333575 
L 117.991954 412.2992 
Q 117.991954 410.2992 115.991954 410.2992 
L 64.412267 410.2992 
Q 62.412267 410.2992 62.412267 412.2992 
L 62.412267 455.333575 
Q 62.412267 457.333575 64.412267 457.333575 
z
" style="fill: #ffffff; opacity: 0.8; stroke: #cccccc; stroke-linejoin: miter"/>
    </g>
    <g id="patch_23">
     <path d="M 66.412267 421.897637 
L 86.412267 421.897637 
L 86.412267 414.897637 
L 66.412267 414.897637 
L 66.412267 421.897637 
z
" style="fill: none; opacity: 0.8; stroke: #1f77b4; stroke-linejoin: miter"/>
    </g>
    <g id="text_35">
     <!-- tvm -->
     <g transform="translate(94.412267 421.897637) scale(0.1 -0.1)">
      <use xlink:href="#DejaVuSans-74"/>
      <use xlink:href="#DejaVuSans-76" x="39.208984"/>
      <use xlink:href="#DejaVuSans-6d" x="98.388672"/>
     </g>
    </g>
    <g id="patch_24">
     <path d="M 66.412267 436.575762 
L 86.412267 436.575762 
L 86.412267 429.575762 
L 66.412267 429.575762 
L 66.412267 436.575762 
z
" style="fill: none; opacity: 0.8; stroke: #ff7f0e; stroke-linejoin: miter"/>
    </g>
    <g id="text_36">
     <!-- mlir -->
     <g transform="translate(94.412267 436.575762) scale(0.1 -0.1)">
      <use xlink:href="#DejaVuSans-6d"/>
      <use xlink:href="#DejaVuSans-6c" x="97.412109"/>
      <use xlink:href="#DejaVuSans-69" x="125.195312"/>
      <use xlink:href="#DejaVuSans-72" x="152.978516"/>
     </g>
    </g>
    <g id="patch_25">
     <path d="M 66.412267 451.253887 
L 86.412267 451.253887 
L 86.412267 444.253887 
L 66.412267 444.253887 
L 66.412267 451.253887 
z
" style="fill: none; opacity: 0.8; stroke: #2ca02c; stroke-linejoin: miter"/>
    </g>
    <g id="text_37">
     <!-- jir -->
     <g transform="translate(94.412267 451.253887) scale(0.1 -0.1)">
      <use xlink:href="#DejaVuSans-6a"/>
      <use xlink:href="#DejaVuSans-69" x="27.783203"/>
      <use xlink:href="#DejaVuSans-72" x="55.566406"/>
     </g>
    </g>
   </g>
  </g>
 </g>
 <defs>
  <clipPath id="pecc0d84188">
   <rect x="57.412267" y="45.8752" width="661.435733" height="284.398933"/>
  </clipPath>
  <clipPath id="pb4093d5b0a">
   <rect x="57.412267" y="405.2992" width="661.435733" height="284.398933"/>
  </clipPath>
 </defs>
</svg>
